<svg xmlns="http://www.w3.org/2000/svg" width="19" height="17" fill="none"><path fill="#2DAFCF" d="M.25 1.781C.25 1.008.848.375 1.621.375h15.223a1.41 1.41 0 0 1 1.406 1.406c0 .317-.14.633-.352.88L11.5 10.43v4.535c0 .633-.562 1.195-1.195 1.195-.282 0-.528-.105-.739-.281l-2.144-1.652a1.1 1.1 0 0 1-.457-.88V10.43L.566 2.66a1.35 1.35 0 0 1-.316-.879M1.621 1.5c-.14 0-.246.14-.246.281 0 .07 0 .106.035.176l6.574 7.91c.07.106.141.246.141.352v3.129L10.27 15h.035c.035 0 .07 0 .07-.035v-4.746c0-.106.035-.246.105-.352l6.575-7.91c.035-.07.07-.105.07-.176 0-.14-.14-.281-.281-.281z"/></svg>