<svg xmlns="http://www.w3.org/2000/svg" width="24" height="24" fill="none"><path fill="#CBD5E1" d="M15.516 8.484c-.282-.28-.797-.28-1.078 0L12 10.97 9.516 8.484c-.282-.28-.797-.28-1.078 0-.282.282-.282.797 0 1.079L10.922 12l-2.485 2.484c-.28.282-.28.797 0 1.079.282.28.797.28 1.079 0L12 13.078l2.438 2.485c.28.28.796.28 1.078 0 .28-.282.28-.797 0-1.079L13.03 12l2.485-2.437c.28-.282.28-.797 0-1.079M12 0C5.344 0 0 5.39 0 12c0 6.656 5.344 12 12 12 6.61 0 12-5.344 12-12 0-6.61-5.39-12-12-12m0 22.5C6.188 22.5 1.5 17.813 1.5 12 1.5 6.234 6.188 1.5 12 1.5c5.766 0 10.5 4.734 10.5 10.5 0 5.813-4.734 10.5-10.5 10.5"/></svg>