<svg xmlns="http://www.w3.org/2000/svg" width="31" height="30" fill="none"><path fill="#2DAFCF" d="M11.633 4.219c-.235.41-.645.586-1.113.468a4.3 4.3 0 0 0-4.336 1.055 4.3 4.3 0 0 0-1.055 4.336c.117.469-.059.879-.469 1.113-1.406.704-2.285 2.168-2.285 3.809 0 1.7.879 3.105 2.285 3.867.41.235.586.645.469 1.113a4.3 4.3 0 0 0 1.055 4.336 4.3 4.3 0 0 0 4.336 1.055c.468-.117.937.059 1.113.469.762 1.406 2.168 2.285 3.867 2.285 1.64 0 3.105-.879 3.809-2.285a.98.98 0 0 1 1.113-.469 4.3 4.3 0 0 0 4.336-1.055 4.3 4.3 0 0 0 1.055-4.335c-.118-.47.058-.938.468-1.114 1.407-.762 2.344-2.168 2.344-3.867 0-1.64-.937-3.105-2.344-3.809a.98.98 0 0 1-.468-1.113 4.3 4.3 0 0 0-1.055-4.336 4.3 4.3 0 0 0-4.336-1.054c-.469.117-.879-.06-1.113-.47A4.26 4.26 0 0 0 15.5 1.876c-1.7 0-3.105.938-3.867 2.344M15.5 0c2.11 0 3.984 1.113 5.098 2.695 1.933-.351 3.984.235 5.508 1.7 1.464 1.523 2.05 3.574 1.699 5.507C29.387 11.016 30.5 12.891 30.5 15c0 2.168-1.113 3.984-2.695 5.156a6.15 6.15 0 0 1-1.7 5.45c-1.523 1.523-3.574 2.109-5.507 1.757A6.24 6.24 0 0 1 15.5 30c-2.168 0-3.984-1.055-5.156-2.637a6.03 6.03 0 0 1-5.45-1.758 6.03 6.03 0 0 1-1.757-5.449C1.555 18.984.5 17.168.5 15a6.24 6.24 0 0 1 2.637-5.098c-.352-1.933.234-3.984 1.758-5.507a6.15 6.15 0 0 1 5.449-1.7C11.516 1.113 13.332 0 15.5 0m5.332 9.668c.352.352.352.996 0 1.348l-9.375 9.375c-.352.351-.996.351-1.348 0-.351-.352-.351-.996 0-1.348l9.375-9.375c.352-.352.996-.352 1.348 0m-9.082 2.988c-.82 0-1.406-.586-1.406-1.406 0-.762.586-1.406 1.406-1.406.762 0 1.406.644 1.406 1.406 0 .82-.644 1.406-1.406 1.406m7.5 7.5c-.82 0-1.406-.586-1.406-1.406 0-.762.586-1.406 1.406-1.406.762 0 1.406.644 1.406 1.406 0 .82-.644 1.406-1.406 1.406"/></svg>