<svg xmlns="http://www.w3.org/2000/svg" width="12" height="13" fill="none"><path fill="#10C9BE" d="M6.375 3.36c.117.023.422.093.563.117.187.046.304.257.257.468-.047.188-.258.305-.468.258a18 18 0 0 0-.516-.117c-.305-.047-.54 0-.727.07-.164.094-.234.188-.234.258-.023.117 0 .164 0 .188.023.023.047.07.117.117.164.117.399.187.727.281h.023c.281.094.656.21.914.398.164.118.282.258.375.446.094.187.094.398.07.633-.07.398-.351.68-.703.843a2 2 0 0 1-.398.117v.188c0 .21-.187.375-.375.375a.37.37 0 0 1-.375-.375v-.21c-.234-.048-.562-.165-.773-.235-.047 0-.07-.024-.118-.024-.187-.07-.28-.281-.234-.492a.393.393 0 0 1 .492-.234.25.25 0 0 0 .14.047c.212.093.47.164.634.187.304.07.562.024.726-.047.14-.07.211-.14.235-.281.023-.094 0-.164 0-.188-.024-.046-.07-.093-.118-.14-.164-.117-.398-.188-.726-.281l-.047-.024c-.281-.094-.633-.187-.89-.375a1.2 1.2 0 0 1-.376-.398 1.5 1.5 0 0 1-.07-.633c.07-.399.352-.656.68-.82.14-.047.28-.094.445-.118v-.234c0-.187.164-.375.375-.375.188 0 .375.188.375.375zm-5.25 2.015C1.125 2.703 3.305.5 6 .5c2.672 0 4.875 2.203 4.875 4.875 0 2.695-2.203 4.875-4.875 4.875a4.87 4.87 0 0 1-4.875-4.875M6 9.5a4.116 4.116 0 0 0 4.125-4.125A4.13 4.13 0 0 0 6 1.25a4.116 4.116 0 0 0-4.125 4.125A4.1 4.1 0 0 0 6 9.5m-3.844 0h-.844a.555.555 0 0 0-.562.563v1.124c0 .329.234.563.563.563h9.375a.555.555 0 0 0 .562-.562v-1.126a.57.57 0 0 0-.562-.562H9.82c.235-.21.47-.469.68-.75h.188c.703 0 1.312.61 1.312 1.313v1.124c0 .727-.61 1.313-1.312 1.313H1.313A1.31 1.31 0 0 1 0 11.188v-1.126C0 9.36.586 8.75 1.313 8.75h.164c.21.281.445.54.68.75"/></svg>