<svg xmlns="http://www.w3.org/2000/svg" width="80" height="80" fill="none"><path fill="#E13A3A" d="M52.516 27.344a3.75 3.75 0 0 0-5.303 0L40 34.704l-7.484-7.36a3.749 3.749 0 1 0-5.303 5.303l7.348 7.348-7.217 7.349a3.75 3.75 0 0 0 0 5.303 3.75 3.75 0 0 0 5.303 0L40 45.297l7.348 7.348a3.75 3.75 0 1 0 5.303-5.303l-7.348-7.348 7.349-7.349c1.457-1.458 1.457-3.833-.136-5.301M40 0C17.906 0 0 17.906 0 40s17.906 40 40 40 40-17.906 40-40S62.094 0 40 0m0 72.5C22.078 72.5 7.5 57.92 7.5 40S22.078 7.5 40 7.5 72.5 22.08 72.5 40 57.922 72.5 40 72.5"/></svg>