<svg xmlns="http://www.w3.org/2000/svg" width="72" height="72" fill="none"><path fill="#2DAFCF" d="M36 0c19.898 0 36 16.104 36 36 0 19.898-16.104 36-36 36C16.102 72 0 55.896 0 36 0 16.102 16.104 0 36 0m0 5.625C19.21 5.625 5.625 19.212 5.625 36c0 16.79 13.587 30.375 30.375 30.375 16.79 0 30.375-13.587 30.375-30.375C66.375 19.21 52.788 5.625 36 5.625m.468 24.815c1.557 0 2.875 1.288 2.875 2.81v13.63h1.917c1.557 0 2.875 1.288 2.875 2.81 0 1.64-1.318 2.81-2.875 2.81h-9.584c-1.677 0-2.876-1.17-2.876-2.81 0-1.522 1.198-2.81 2.876-2.81h1.917V36.06h-.96c-1.676 0-2.874-1.171-2.874-2.81 0-1.522 1.198-2.81 2.875-2.81zm0-11.24c2.036 0 3.833 1.756 3.834 3.746 0 2.108-1.798 3.747-3.834 3.747-2.157 0-3.834-1.64-3.834-3.747 0-1.99 1.678-3.746 3.834-3.746"/></svg>