<svg xmlns="http://www.w3.org/2000/svg" width="31" height="25" fill="none"><path fill="#F8FAFC" d="M25.856.734c.28-.28.796-.28 1.078 0l3 3c.14.141.234.329.234.516a.78.78 0 0 1-.234.563l-3 3c-.282.28-.797.28-1.079 0-.28-.282-.28-.797 0-1.079L27.59 5H7.668c0 2.484-2.016 4.5-4.5 4.5v5.86l-1.5 1.5V6.5c0-1.64 1.312-3 3-3H27.59l-1.735-1.687c-.28-.282-.28-.797 0-1.079M6.168 5h-1.5c-.844 0-1.5.703-1.5 1.5V8c1.64 0 3-1.312 3-3M4.434 23.234c.28.282.28.797 0 1.078-.282.282-.797.282-1.079 0l-3-3c-.14-.14-.187-.328-.187-.562 0-.187.047-.375.187-.516l3-3c.282-.28.797-.28 1.079 0 .28.282.28.797 0 1.078L2.699 20h19.969c0-2.484 1.969-4.5 4.5-4.5V9.688l1.5-1.5V18.5c0 1.688-1.36 3-3 3H2.699zM24.168 20h1.5c.797 0 1.5-.656 1.5-1.5V17c-1.687 0-3 1.36-3 3m-4.5-7.5c0 2.484-2.016 4.5-4.5 4.5a4.47 4.47 0 0 1-4.5-4.5c0-2.484 1.969-4.5 4.5-4.5 2.484 0 4.5 2.016 4.5 4.5m-4.5-3c-1.687 0-3 1.36-3 3 0 1.688 1.313 3 3 3 1.64 0 3-1.312 3-3 0-1.64-1.36-3-3-3"/></svg>