<svg xmlns="http://www.w3.org/2000/svg" width="62" height="81" fill="none"><path fill="#EE9F27" d="M41 0c5.791 0 10.5 4.7 10.5 10.5v7.535c6.204 5.578 10 13.584 10 22.465s-3.796 16.887-10 22.465V70.5C51.5 76.292 46.792 81 41 81H21c-5.8 0-10.5-4.709-10.5-10.5v-7.417C4.358 57.501.5 49.446.5 40.5s3.858-17.001 10-22.583V10.5C10.5 4.7 15.2 0 21 0zm4.5 67.336A30.8 30.8 0 0 1 31 71a30.4 30.4 0 0 1-14.5-3.663V70.5c0 2.49 2.01 4.5 4.5 4.5h20c2.49 0 4.5-2.01 4.5-4.5zM31 16C17.464 16 6.5 26.964 6.5 40.5S17.464 65 31 65s24.5-10.964 24.5-24.5S44.536 16 31 16m0 9c1.651 0 3 1.349 3 3v10.889l6.168 4.117a3.007 3.007 0 0 1 .827 4.161l-.002.002a3.007 3.007 0 0 1-4.16.826l-7.501-5-.004-.004A3.03 3.03 0 0 1 28 40.5V28c0-1.651 1.349-3 3-3M21 6c-2.49 0-4.5 2.015-4.5 4.5v3.16A30.34 30.34 0 0 1 31 10a30.8 30.8 0 0 1 14.5 3.661V10.5C45.5 8.015 43.49 6 41 6z"/></svg>