<svg xmlns="http://www.w3.org/2000/svg" width="31" height="30" fill="none"><g stroke="#2DAFCF" stroke-linecap="round" stroke-linejoin="round" stroke-width="2" clip-path="url(#a)"><path d="M28.675 8.025a3.48 3.48 0 0 0-2.425-2.5C24.1 5 15.5 5 15.5 5s-8.6 0-10.75.575a3.48 3.48 0 0 0-2.425 2.5 36.3 36.3 0 0 0-.575 6.613 36.3 36.3 0 0 0 .575 6.662 3.48 3.48 0 0 0 2.425 2.4c2.15.575 10.75.575 10.75.575s8.6 0 10.75-.575a3.48 3.48 0 0 0 2.425-2.5c.39-2.166.583-4.362.575-6.562a36.3 36.3 0 0 0-.575-6.663"/><path d="m12.688 18.775 7.187-4.087-7.187-4.088z"/></g><defs><clipPath id="a"><path fill="#fff" d="M.5 0h30v30H.5z"/></clipPath></defs></svg>