<svg xmlns="http://www.w3.org/2000/svg" width="81" height="80" fill="none"><path fill="#3CE725" d="M58.181 27.308a3.126 3.126 0 0 1 0 4.42L37.217 52.692a3.126 3.126 0 0 1-4.42 0l-9.98-9.981a3.124 3.124 0 1 1 4.419-4.419l7.77 7.77 18.755-18.756a3.13 3.13 0 0 1 4.42.002M80.5 40c0 22.11-17.894 40-40 40-22.11 0-40-17.894-40-40 0-22.11 17.894-40 40-40 22.11 0 40 17.894 40 40m-6.25 0c0-18.655-15.097-33.75-33.75-33.75C21.845 6.25 6.75 21.347 6.75 40c0 18.655 15.097 33.75 33.75 33.75 18.655 0 33.75-15.097 33.75-33.75"/></svg>