<svg xmlns="http://www.w3.org/2000/svg" width="12" height="13" fill="none"><path fill="#10C9BE" d="M3 3.5c.82 0 1.5-.656 1.5-1.5C4.5 1.18 3.82.5 3 .5c-.844 0-1.5.68-1.5 1.5 0 .844.656 1.5 1.5 1.5m0-2.25c.398 0 .75.352.75.75 0 .422-.352.75-.75.75A.74.74 0 0 1 2.25 2c0-.398.328-.75.75-.75m.75 3h-1.5c-.844 0-1.5.68-1.5 1.5V8c0 .422.328.75.75.75v3.375c0 .21.164.375.375.375a.385.385 0 0 0 .375-.375V8.75h1.5v3.375c0 .21.164.375.375.375a.385.385 0 0 0 .375-.375V8.75c.398 0 .75-.328.75-.75V5.75c0-.82-.68-1.5-1.5-1.5M4.5 8h-3V5.75c0-.398.328-.75.75-.75h1.5c.398 0 .75.352.75.75zm5.25-3.75h-1.5c-.844 0-1.5.68-1.5 1.5V8c0 .422.328.75.75.75v3.375c0 .21.164.375.375.375a.385.385 0 0 0 .375-.375V8.75h1.5v3.375c0 .21.164.375.375.375a.385.385 0 0 0 .375-.375V8.75c.398 0 .75-.328.75-.75V5.75c0-.82-.68-1.5-1.5-1.5M10.5 8h-3V5.75c0-.398.328-.75.75-.75h1.5c.398 0 .75.352.75.75zM9 3.5c.82 0 1.5-.656 1.5-1.5 0-.82-.68-1.5-1.5-1.5-.844 0-1.5.68-1.5 1.5 0 .844.656 1.5 1.5 1.5m0-2.25c.398 0 .75.352.75.75 0 .422-.352.75-.75.75A.74.74 0 0 1 8.25 2c0-.398.328-.75.75-.75"/></svg>