<svg xmlns="http://www.w3.org/2000/svg" width="74" height="64" fill="none"><path fill="#F0B100" d="M37 46.625c-1.969 0-3.375 1.547-3.375 3.375 0 1.969 1.547 3.375 3.375 3.375s3.234-1.406 3.234-3.375c.141-1.828-1.406-3.375-3.234-3.375M37 41c1.125 0 2.11-.984 2.11-2.25V18.5c0-1.125-1.126-2.25-2.11-2.25-1.125 0-2.25 1.125-2.25 2.25v20.25c0 1.266.984 2.25 2.25 2.25m34.875 10.969L43.75 4.438C42.344 2.047 39.813.64 37 .5c-2.953 0-5.484 1.547-6.89 3.938L1.983 51.968c-1.406 2.391-1.406 5.204 0 7.594C3.391 62.095 5.922 63.5 8.875 63.5h56.25c2.813 0 5.344-1.406 6.75-3.937 1.406-2.391 1.406-5.204 0-7.594m-3.937 5.343C67.375 58.439 66.25 59 64.984 59H8.875c-1.266 0-2.39-.562-2.953-1.687-.703-.985-.563-2.11 0-3.094L34.047 6.688C34.609 5.703 35.734 5 37 5c-.14 0 0 0 0 0 1.125.14 2.25.703 2.813 1.688l28.124 47.53c.563.985.704 2.11 0 3.094"/></svg>