<svg xmlns="http://www.w3.org/2000/svg" width="22" height="22" fill="none"><path fill="#F3F3F3" d="M11.5 5.61c-3 0-5.39 2.437-5.39 5.39 0 3 2.39 5.39 5.39 5.39 2.953 0 5.39-2.39 5.39-5.39 0-2.953-2.437-5.39-5.39-5.39m0 8.906A3.51 3.51 0 0 1 7.984 11c0-1.922 1.547-3.469 3.516-3.469A3.46 3.46 0 0 1 14.969 11c0 1.969-1.547 3.516-3.469 3.516m6.844-9.094a1.26 1.26 0 0 1-1.266 1.266 1.26 1.26 0 0 1-1.265-1.266 1.26 1.26 0 0 1 1.265-1.266 1.26 1.26 0 0 1 1.266 1.266m3.562 1.266C21.813 5 21.438 3.5 20.22 2.28S17.5.687 15.812.594C14.079.5 8.875.5 7.142.594 5.453.688 4 1.063 2.734 2.28 1.516 3.5 1.141 5 1.047 6.687c-.094 1.735-.094 6.938 0 8.672.094 1.688.469 3.141 1.687 4.407 1.266 1.218 2.72 1.593 4.407 1.687 1.734.094 6.937.094 8.672 0 1.687-.094 3.187-.469 4.406-1.687 1.218-1.266 1.593-2.72 1.687-4.407.094-1.734.094-6.937 0-8.671m-2.25 10.5c-.328.937-1.078 1.64-1.968 2.015-1.407.563-4.688.422-6.188.422-1.547 0-4.828.14-6.187-.422a3.55 3.55 0 0 1-2.016-2.015c-.563-1.36-.422-4.641-.422-6.188 0-1.5-.14-4.781.422-6.187a3.62 3.62 0 0 1 2.015-1.97c1.36-.562 4.641-.421 6.188-.421 1.5 0 4.781-.14 6.188.422.89.328 1.593 1.078 1.968 1.969.563 1.406.422 4.687.422 6.187 0 1.547.14 4.828-.422 6.188"/></svg>