<svg xmlns="http://www.w3.org/2000/svg" width="139" height="36" fill="none"><g clip-path="url(#a)"><mask id="b" width="139" height="36" x="0" y="0" maskUnits="userSpaceOnUse" style="mask-type:luminance"><path fill="#fff" d="M138.5.5H.5v34.52h138z"/></mask><g fill="#2DAFCF" mask="url(#b)"><path d="M18.308.5a3.523 3.523 0 0 1-3.528 3.517A3.523 3.523 0 0 1 11.252.5H.5v34.52h26.57V.5h-8.762M12.86 19.74a15.6 15.6 0 0 0-3.045.53 9.6 9.6 0 0 0-2.137-3.148 12.4 12.4 0 0 1 5.179-1.62v4.237zm2.2-4.237c1.867.153 3.6.73 5.14 1.598a9.5 9.5 0 0 0-2.137 3.17 13.4 13.4 0 0 0-3.003-.532zm-13.105 8.82c.692-2.329 2.073-4.368 3.888-5.908a7.44 7.44 0 0 1 1.92 2.645h-.011a14.5 14.5 0 0 0-5.797 4.768V24.32zm0 6.43c.958-3.27 3.258-5.989 6.346-7.539.01.226.031.442.031.657 0 3.691-2.787 6.75-6.377 7.198zm0 2.533c.216-.032.423-.063.66-.105 4.48-.757 7.913-4.646 7.913-9.31 0-.493-.042-1.004-.112-1.487.804-.247 1.608-.39 2.444-.462v11.364zm13.105 0V21.922c.814.072 1.618.205 2.405.43v.021a9 9 0 0 0-.133 1.498c0 4.688 3.469 8.595 7.986 9.32q.31.064.65.095H15.06m10.905-2.204c-3.633-.44-6.437-3.506-6.437-7.207 0-.226.01-.452.042-.678a12.6 12.6 0 0 1 3.993 3.107 12.3 12.3 0 0 1 2.406 4.441v.337zm0-5.261a14.74 14.74 0 0 0-5.84-4.79 6.8 6.8 0 0 1 1.931-2.633c1.815 1.54 3.21 3.59 3.909 5.918v1.508zM36.563 26.168V8.82h4.546q1.121-.001 2.122.17a4.9 4.9 0 0 1 1.776.653c.518.324.923.779 1.217 1.373s.44 1.373.44 2.346c0 .698-.104 1.29-.31 1.765-.207.48-.504.862-.882 1.147-.38.285-.835.48-1.367.577q1.012.13 1.703.653.691.525 1.045 1.404.357.88.357 2.12 0 1.35-.357 2.325-.354.975-1.024 1.595c-.447.414-.993.72-1.647.921q-.982.302-2.252.3zM40.42 15.76h.755q.886 0 1.336-.268.451-.266.615-.782.162-.516.161-1.24-.001-.684-.248-1.147a1.58 1.58 0 0 0-.734-.695q-.489-.236-1.217-.237h-.668zm0 7.729h.818c.846 0 1.434-.216 1.755-.643q.487-.641.486-1.884 0-.985-.216-1.564a1.54 1.54 0 0 0-.71-.848q-.497-.266-1.336-.267h-.797v5.2059999999999995M48.346 26.168 51.644 8.82h4.395l3.255 17.348h-3.556l-.58-3.663h-2.563l-.605 3.663h-3.644m4.591-5.956h1.854l-.927-6.767zM65.522 26.426q-1.635-.001-2.738-.58c-.734-.387-1.286-.98-1.66-1.79-.375-.807-.58-1.853-.626-3.139l3.297-.493c.014.744.084 1.341.203 1.8s.293.785.517.987.493.299.808.299q.603 0 .787-.407.182-.406.181-.855.001-1.07-.517-1.81c-.346-.494-.811-.987-1.402-1.488l-1.507-1.306a8.4 8.4 0 0 1-1.672-1.894q-.677-1.06-.678-2.624-.001-2.206 1.315-3.375c.874-.778 2.07-1.167 3.577-1.167q1.4-.001 2.252.472c.566.313.996.726 1.293 1.23q.44.762.602 1.606t.181 1.616l-3.318.407q-.023-.772-.098-1.338-.075-.568-.31-.88-.237-.31-.735-.309-.54 0-.787.448a1.86 1.86 0 0 0-.248.9q0 .965.465 1.575.462.608 1.217 1.275l1.444 1.265a9.9 9.9 0 0 1 1.93 2.186q.787 1.22.787 3.02 0 1.221-.56 2.217a4.1 4.1 0 0 1-1.584 1.575q-1.023.58-2.423.58zM80.905 29.57q-.472-.214-1.143-.694-.668-.48-1.325-1.137a8.7 8.7 0 0 1-1.109-1.338.7.7 0 0 1-.171.021h-.196q-1.963-.002-3.101-.684a3.82 3.82 0 0 1-1.637-1.971q-.497-1.286-.496-3.062V14.26q-.001-1.8.496-3.062a3.8 3.8 0 0 1 1.637-1.94q1.144-.675 3.101-.673c1.304 0 2.367.225 3.137.674a3.75 3.75 0 0 1 1.646 1.939q.498 1.262.497 3.062v6.446q-.001 1.22-.227 2.207-.225.987-.735 1.713-.507.725-1.346 1.158a13 13 0 0 0 1.189 1.122q.301.245.601.396zm-3.944-5.866q.602 0 .885-.299.277-.297.367-.771a5.5 5.5 0 0 0 .084-.963v-8.35q0-.516-.084-.974a1.5 1.5 0 0 0-.367-.76q-.28-.3-.885-.3-.602 0-.874.3a1.5 1.5 0 0 0-.346.76 6 6 0 0 0-.077.973v8.351q-.001.494.077.963c.049.313.164.573.346.771q.269.302.874.3M89.633 26.426q-2.004-.002-3.136-.654a3.5 3.5 0 0 1-1.584-1.908q-.45-1.252-.451-3.072V8.82h3.814v12.549c0 .358.029.712.084 1.07q.084.536.378.88c.192.229.493.344.895.344s.717-.115.906-.344c.189-.23.304-.522.356-.88a7 7 0 0 0 .077-1.07V8.819h3.836v11.973q0 1.82-.462 3.072a3.57 3.57 0 0 1-1.584 1.908q-1.122.653-3.125.654zM97.258 26.168V8.82h7.842v2.613h-3.986v4.306h3.039v2.655h-3.039v5.182h4.028v2.592h-7.888zM108.464 26.168V11.67h-2.629V8.82h9.115v2.85h-2.608v14.498zM116.179 26.168V22.87h3.318v3.298zM121.759 26.168V8.82h3.857v17.348zM128.22 26.168V8.82h4.416q2.282-.001 3.557.566 1.27.569 1.79 1.78.518 1.209.517 3.138V20.6q-.001 1.95-.517 3.18-.518 1.231-1.777 1.81-1.258.578-3.52.577h-4.465999999999999m3.861-2.655h.605c.587 0 1.014-.087 1.269-.257q.386-.255.486-.771.096-.515.098-1.286V13.64q-.002-.772-.119-1.24a1.02 1.02 0 0 0-.507-.685q-.387-.215-1.252-.216h-.58z"/><path d="M12.944 14.356c-.032 0-.053 0-.085.01v-.01zM15.064 14.356v.01c-.031-.01-.063-.01-.095-.01zM1.858 31.075c-.011.021-.011.032-.011.053-.01-.021-.01-.032-.01-.042zM26.073 31.128s-.01-.021-.01-.032h.01z"/><path d="M12.86 14.356v.02s.02-.01.03-.01c.022-.01.032-.01.053-.01zm2.136 0s.02 0 .031.01c.01 0 .021 0 .032.01v-.02zM26.073 31.128s-.01-.021-.01-.032h.01zM1.847 31.128c-.01-.021-.01-.032-.01-.042l.02-.01c-.01.02-.01.03-.01.052"/><path d="M26.073 31.128s-.01-.021-.01-.032h.01zM1.858 31.075c-.011.021-.011.032-.011.053-.01-.021-.01-.032-.01-.042zM18.309.5a3.523 3.523 0 0 1-3.528 3.517A3.523 3.523 0 0 1 11.253.5H1.955v23.823c.693-2.329 2.074-4.368 3.889-5.908a7.44 7.44 0 0 1 1.92 2.645h-.011a14.5 14.5 0 0 0-5.798 4.768v4.92c.958-3.27 3.26-5.987 6.347-7.537.01.226.031.441.031.657 0 3.69-2.787 6.749-6.378 7.197v2.214c.217-.032.424-.063.661-.104 4.48-.758 7.913-4.647 7.913-9.31 0-.494-.042-1.005-.112-1.488a11.7 11.7 0 0 1 2.444-.462v11.364h2.2V21.915a13 13 0 0 1 2.405.43v.021a9 9 0 0 0-.133 1.498c0 4.688 3.469 8.595 7.986 9.321q.31.063.65.094v-2.204c-3.633-.44-6.437-3.506-6.437-7.207 0-.226.01-.452.042-.678a12.6 12.6 0 0 1 3.993 3.107 12.3 12.3 0 0 1 2.406 4.441v-4.92a14.74 14.74 0 0 0-5.84-4.79 6.8 6.8 0 0 1 1.93-2.634c1.816 1.54 3.21 3.59 3.91 5.919V.5h-7.664M12.86 19.74a15.6 15.6 0 0 0-3.045.53 9.6 9.6 0 0 0-2.137-3.148 12.4 12.4 0 0 1 5.179-1.62v4.237zm.031-5.374s-.02 0-.03.01v-.02h.083c-.021 0-.031 0-.053.01m2.137 0s-.021-.01-.032-.01h.063v.02s-.02-.01-.031-.01m3.031 5.905a13.4 13.4 0 0 0-3.003-.532v-4.236c1.867.153 3.601.73 5.14 1.598a9.5 9.5 0 0 0-2.137 3.17"/><path d="M12.944 14.356c-.032 0-.053 0-.085.01v-.01zM15.064 14.356v.01c-.031-.01-.063-.01-.095-.01z"/><path d="M22.053 18.394c1.815 1.54 3.21 3.59 3.91 5.919V8.58H1.954v15.743c.693-2.329 2.074-4.369 3.889-5.908a7.44 7.44 0 0 1 1.92 2.645h-.011a14.5 14.5 0 0 0-5.798 4.768v4.92c.958-3.27 3.26-5.987 6.347-7.537.01.226.031.441.031.657 0 3.69-2.787 6.749-6.378 7.197v2.214c.217-.032.424-.063.661-.105 4.48-.757 7.913-4.646 7.913-9.31 0-.493-.042-1.004-.112-1.487a11.7 11.7 0 0 1 2.444-.462v11.364h2.2V21.914a13 13 0 0 1 2.405.431v.021a9 9 0 0 0-.133 1.498c0 4.688 3.469 8.595 7.986 9.32q.31.064.65.095v-2.204c-3.633-.44-6.437-3.506-6.437-7.207 0-.226.01-.452.042-.678a12.6 12.6 0 0 1 3.993 3.107 12.3 12.3 0 0 1 2.406 4.441v-4.92a14.74 14.74 0 0 0-5.84-4.79 6.8 6.8 0 0 1 1.93-2.634zm-9.192 1.345a15.6 15.6 0 0 0-3.045.532 9.6 9.6 0 0 0-2.137-3.149 12.4 12.4 0 0 1 5.179-1.62v4.237zm5.2.532a13.4 13.4 0 0 0-3.004-.532v-4.236c1.867.153 3.601.73 5.14 1.598a9.5 9.5 0 0 0-2.137 3.17"/></g></g><defs><clipPath id="a"><path fill="#fff" d="M.5.5h138v35H.5z"/></clipPath></defs></svg>