<svg xmlns="http://www.w3.org/2000/svg" width="145" height="37" fill="none"><g fill="#fff" clip-path="url(#a)"><path d="M18.99 0a3.705 3.705 0 0 1-3.699 3.71A3.705 3.705 0 0 1 11.592 0H.32v36.412h27.856V0H18.99m-5.711 20.294a16.2 16.2 0 0 0-3.193.56 10.1 10.1 0 0 0-2.24-3.32 12.9 12.9 0 0 1 5.429-1.709v4.469zm2.305-4.469c1.958.161 3.776.77 5.389 1.686-.964.942-1.72 2.09-2.24 3.344a14 14 0 0 0-3.149-.561zM1.845 25.13c.726-2.456 2.174-4.608 4.076-6.232a7.85 7.85 0 0 1 2.013 2.79h-.011a15.24 15.24 0 0 0-6.078 5.029v-1.59zm0 6.781c1.004-3.45 3.417-6.316 6.653-7.95.011.238.033.465.033.692a7.66 7.66 0 0 1-6.686 7.592zm0 2.673c.227-.033.444-.066.693-.11 4.696-.8 8.296-4.901 8.296-9.82 0-.521-.044-1.06-.118-1.57.843-.26 1.686-.41 2.563-.487v11.987zm13.74 0V22.596c.853.077 1.697.216 2.521.454v.022a9.4 9.4 0 0 0-.139 1.58c0 4.945 3.636 9.066 8.373 9.832q.324.066.681.099H15.584m11.433-2.324c-3.809-.466-6.749-3.7-6.749-7.603 0-.238.011-.477.044-.715a13.2 13.2 0 0 1 4.186 3.277 13 13 0 0 1 2.522 4.685v.356zm0-5.55a15.47 15.47 0 0 0-6.122-5.052 7.2 7.2 0 0 1 2.023-2.778c1.903 1.624 3.366 3.786 4.099 6.242v1.591zM38.129 27.075v-18.3h4.765q1.176 0 2.226.18 1.052.182 1.862.69.814.508 1.275 1.447c.308.627.462 1.448.462 2.474q-.001 1.107-.326 1.863c-.216.506-.528.909-.924 1.21q-.599.452-1.433.608c.707.092 1.301.319 1.785.69s.847.86 1.096 1.48q.374.929.374 2.236 0 1.424-.374 2.453-.372 1.028-1.074 1.682c-.47.436-1.04.759-1.726.972q-1.03.316-2.361.315zm4.043-10.98h.792q.929 0 1.4-.281.474-.28.646-.825.169-.545.168-1.309-.001-.72-.26-1.21a1.66 1.66 0 0 0-.77-.733q-.51-.248-1.276-.249h-.7zm0 8.154h.858q1.332-.001 1.84-.679.51-.677.51-1.986-.001-1.04-.227-1.65t-.745-.895q-.521-.281-1.4-.282h-.836v5.4910000000000005M50.483 27.075l3.457-18.3h4.608l3.412 18.3h-3.728l-.608-3.864h-2.687l-.634 3.864h-3.82m4.813-6.283h1.943l-.971-7.138zM68.489 27.347q-1.716 0-2.87-.612-1.154-.609-1.742-1.888-.586-1.276-.656-3.31l3.457-.52c.014.784.088 1.415.212 1.898q.189.724.543 1.041.351.318.847.316.632 0 .825-.43.191-.428.19-.9 0-1.129-.542-1.91c-.363-.521-.85-1.042-1.47-1.57l-1.58-1.378a8.9 8.9 0 0 1-1.753-1.998q-.709-1.117-.71-2.767-.002-2.328 1.378-3.56c.916-.821 2.17-1.232 3.75-1.232q1.469-.001 2.36.499c.594.33 1.045.766 1.357 1.298q.461.803.63 1.693.17.89.19 1.705l-3.478.429a14 14 0 0 0-.103-1.412q-.076-.599-.326-.927-.247-.328-.77-.326-.566 0-.824.473c-.173.315-.26.634-.26.949q-.002 1.018.487 1.66.484.644 1.275 1.346l1.514 1.334c.8.678 1.47 1.448 2.024 2.306q.825 1.287.825 3.186 0 1.287-.587 2.338a4.3 4.3 0 0 1-1.66 1.66q-1.073.613-2.54.613zM84.618 30.665q-.495-.226-1.199-.733a11.3 11.3 0 0 1-1.39-1.199 9 9 0 0 1-1.161-1.411.8.8 0 0 1-.18.022h-.205q-2.057 0-3.252-.723c-.799-.483-1.37-1.172-1.715-2.078q-.522-1.356-.52-3.23v-6.8q-.002-1.897.52-3.229a4 4 0 0 1 1.715-2.046c.8-.476 1.884-.71 3.252-.71s2.481.238 3.288.71a3.95 3.95 0 0 1 1.727 2.046q.521 1.332.52 3.23v6.8q0 1.286-.238 2.327-.237 1.041-.77 1.808-.533.764-1.411 1.22a14 14 0 0 0 1.246 1.184c.209.172.422.312.63.418zm-4.135-6.188q.632 0 .927-.315.292-.314.385-.814.088-.496.088-1.015v-8.81q0-.542-.088-1.026a1.6 1.6 0 0 0-.385-.802c-.194-.21-.506-.316-.927-.316q-.632.001-.917.316-.28.319-.363.802c-.05.323-.08.668-.08 1.027v8.809q-.001.521.08 1.015c.052.33.173.605.363.814q.282.317.917.315M93.767 27.346q-2.1 0-3.288-.69a3.7 3.7 0 0 1-1.66-2.012q-.474-1.32-.473-3.24V8.775h3.999v13.237q0 .565.088 1.13t.396.927q.305.363.938.363c.422 0 .752-.121.95-.363s.319-.55.374-.927c.055-.378.08-.752.08-1.13V8.775h4.022v12.629q0 1.92-.484 3.24t-1.66 2.013q-1.178.688-3.278.69zM101.762 27.075v-18.3h8.222v2.757h-4.178v4.542h3.185v2.8h-3.185v5.466h4.222v2.735h-8.269zM113.511 27.075V11.78h-2.757V8.775h9.557v3.006h-2.735v15.294zM121.598 27.075v-3.48h3.479v3.48zM127.449 27.075v-18.3h4.043v18.3zM134.223 27.075v-18.3h4.63q2.391-.001 3.728.598 1.332.6 1.876 1.877.544 1.275.543 3.31v6.642q-.001 2.057-.543 3.354-.543 1.3-1.862 1.91-1.32.61-3.691.609h-4.681m4.047-2.8h.634c.616 0 1.063-.092 1.33-.272q.406-.27.51-.814a7.7 7.7 0 0 0 .103-1.356V13.86q-.002-.814-.125-1.309-.123-.496-.531-.722-.407-.226-1.313-.227h-.608z"/><path d="M13.366 14.615c-.033 0-.055 0-.088.011v-.01zM15.589 14.615v.011c-.034-.01-.066-.01-.1-.01zM1.743 32.252c-.011.022-.011.033-.011.055-.011-.022-.011-.033-.011-.044zM27.131 32.306s-.01-.022-.01-.033h.01z"/><path d="M13.278 14.615v.022s.022-.01.033-.01c.022-.012.033-.012.055-.012zm2.24 0s.022 0 .033.011c.01 0 .022 0 .033.011v-.022zM27.131 32.306s-.01-.022-.01-.033h.01zM1.732 32.307c-.011-.022-.011-.033-.011-.044l.022-.011c-.011.022-.011.033-.011.055"/><path d="M27.131 32.306s-.01-.022-.01-.033h.01zM1.743 32.252c-.011.022-.011.033-.011.055-.011-.022-.011-.033-.011-.044zM18.99 0a3.705 3.705 0 0 1-3.699 3.71A3.705 3.705 0 0 1 11.593 0H1.845v25.129c.726-2.456 2.174-4.608 4.077-6.232a7.85 7.85 0 0 1 2.012 2.79h-.01a15.24 15.24 0 0 0-6.079 5.029v5.19c1.005-3.449 3.417-6.315 6.654-7.95.01.238.033.465.033.692a7.66 7.66 0 0 1-6.687 7.592v2.335c.228-.033.444-.066.693-.11 4.696-.799 8.296-4.9 8.296-9.82 0-.52-.044-1.06-.117-1.57.843-.26 1.686-.41 2.562-.487v11.987h2.306V22.588a13.4 13.4 0 0 1 2.522.455v.022a9.4 9.4 0 0 0-.14 1.58c0 4.945 3.637 9.065 8.373 9.831q.325.066.682.1V32.25c-3.809-.465-6.749-3.698-6.749-7.602 0-.239.011-.477.044-.715a13.2 13.2 0 0 1 4.186 3.277 13 13 0 0 1 2.523 4.685v-5.191a15.47 15.47 0 0 0-6.122-5.051 7.2 7.2 0 0 1 2.023-2.779c1.903 1.624 3.365 3.787 4.099 6.243V0H18.99M13.28 20.294a16.2 16.2 0 0 0-3.193.56 10.1 10.1 0 0 0-2.24-3.32 12.9 12.9 0 0 1 5.43-1.709v4.469zm.033-5.668s-.022 0-.033.011v-.022h.088c-.022 0-.033 0-.055.011m2.24 0s-.022-.01-.033-.01h.066v.021s-.022-.01-.033-.01m3.178 6.229a14 14 0 0 0-3.149-.561v-4.469c1.958.161 3.776.77 5.389 1.686-.964.942-1.72 2.09-2.24 3.344"/><path d="M13.366 14.615c-.033 0-.055 0-.088.011v-.01zM15.589 14.615v.011c-.034-.01-.066-.01-.1-.01z"/><path d="M22.916 18.876c1.903 1.624 3.365 3.786 4.099 6.242V8.523H1.845V25.13c.726-2.456 2.174-4.608 4.077-6.232a7.85 7.85 0 0 1 2.012 2.79h-.01a15.24 15.24 0 0 0-6.079 5.03v5.19c1.005-3.45 3.417-6.316 6.654-7.95.01.238.033.465.033.692a7.66 7.66 0 0 1-6.687 7.592v2.335c.228-.033.444-.066.693-.11 4.696-.8 8.296-4.901 8.296-9.82 0-.521-.044-1.06-.117-1.57.843-.26 1.686-.41 2.562-.487v11.987h2.306V22.589c.854.077 1.697.216 2.522.455v.021a9.4 9.4 0 0 0-.14 1.58c0 4.945 3.637 9.066 8.373 9.832q.325.066.682.099v-2.324c-3.809-.466-6.749-3.699-6.749-7.603 0-.238.011-.477.044-.715a13.2 13.2 0 0 1 4.186 3.278 13 13 0 0 1 2.523 4.684v-5.19a15.47 15.47 0 0 0-6.122-5.052 7.2 7.2 0 0 1 2.023-2.779zm-9.637 1.418a16.2 16.2 0 0 0-3.193.561 10.1 10.1 0 0 0-2.24-3.321 12.9 12.9 0 0 1 5.43-1.708v4.468zm5.45.561a14 14 0 0 0-3.148-.56v-4.47c1.958.162 3.776.77 5.389 1.687-.964.942-1.72 2.09-2.24 3.343"/></g><defs><clipPath id="a"><path fill="#fff" d="M.32 0H145v36.412H.32z"/></clipPath></defs></svg>